<?xml version="1.0" encoding="utf-8"?>
<!-- Generator: Adobe Illustrator 24.0.2, SVG Export Plug-In . SVG Version: 6.00 Build 0)  -->
<svg version="1.1" id="Слой_1" xmlns="http://www.w3.org/2000/svg" xmlns:xlink="http://www.w3.org/1999/xlink" x="0px" y="0px"
	 viewBox="0 0 275 61" style="enable-background:new 0 0 275 61;" xml:space="preserve">
<style type="text/css">
	.st0{fill:#F1F2F6;}
	.st1{fill:#9B111B;}
	.st2{fill:#FFFFFF;}
	.st3{fill:#4E3032;}
</style>
<g>
	<path class="st0" d="M0,46.5C0,32.7,0.1,32,2,32c1.4,0,2,0.7,2,2.3c0,1.2,1.5,4.9,3.4,8.2c3.2,5.9,8.3,10.5,13.9,12.6
		c1.5,0.6,2.7,1.5,2.7,2s2.5,0.9,5.5,0.9s5.5-0.4,5.5-1c0-0.5,0.6-1,1.4-1c2.7,0,10.6-5.2,14.1-9.3S57,35,57,30
		c0-4.7-3.1-11.8-7.1-16.4C46,9.2,37.3,4,33.8,4C32.7,4,32,3.3,32,2c0-2,0.7-2,121.5-2H275v30.5V61H137.5H0V46.5z"/>
	<path class="st0" d="M0,13.5V0h14.5C28,0,29,0.1,29,1.9c0,1.4-1,2-3.7,2.5C17.2,5.6,6.2,16.1,4.5,24.1C4,26.1,3.2,27,1.9,27
		C0.1,27,0,26.1,0,13.5z"/>
</g>
<g>
	<path class="st1" d="M23.5,59.9c-9-2-15.2-6.9-19.6-15.4C-2.4,32.1-0.8,19.1,8.3,9.7C14.7,3.2,20.9,0.6,30,0.5
		c9.3,0,16.9,3.3,22.9,10.1c12.2,13.9,8.5,36.9-7.5,45.8C39.2,59.9,29.8,61.4,23.5,59.9z M38.9,43.7c0.8-1.1,0.5-1.6-1.4-2.5
		c-1.3-0.6-3.1-2.5-4-4.2c-1.9-3.7-5.2-4-6.5-0.5c-0.5,1.4-2.4,3.4-4.1,4.4c-2.8,1.7-2.9,2-1.2,3C24.4,45.5,37.5,45.3,38.9,43.7z"/>
	<path class="st1" d="M87,30.5C87,0.7,87,0,89,0s2,0.7,2,30.5S91,61,89,61S87,60.3,87,30.5z"/>
	<path class="st1" d="M121.3,42.8c-5.3-1.7-8.3-5.8-9-12c-0.5-5.1-0.3-5.7,2.6-9.1c1.8-2,4.8-4.1,6.7-4.7c4-1.3,11.2-0.6,13.9,1.4
		c1.5,1.1,1.6,1.5,0.4,3.4c-0.9,1.5-1.9,2-2.9,1.5c-0.8-0.4-3.6-0.8-6.2-0.8c-3.8,0-5.3,0.5-7.4,2.7c-2.3,2.2-2.6,3.1-2,6.3
		c0.6,3,1.4,3.9,4.3,5.1c1.9,0.8,5.1,1.4,7.1,1.2c3-0.2,3.8-0.8,4-2.5c0.2-1.3-0.2-2.3-0.9-2.3c-1.2,0-3.8-2.9-3.9-4.2
		c0-0.5,2.3-0.8,5-0.8h5v5.1c0,6.3-1.1,8.4-5.1,9.8C129.1,44.2,125.7,44.2,121.3,42.8z"/>
	<path class="st1" d="M148,30V17h10c9.5,0,10.2,0.2,12.7,2.6c3.2,3.2,2.6,7.8-1.4,11.1c-2.7,2.2-2.7,2.2-0.8,4.2
		c1,1.2,2.9,2.1,4.2,2.1c1.9,0,2.3,0.5,2.3,3c0,2.7-0.3,3-3.1,3c-3.1,0-6.7-2.9-10-7.9c-1.3-2.1-2-2.3-5.2-1.7
		c-3.6,0.7-3.7,0.8-3.7,5.1c0,4.1-0.2,4.5-2.5,4.5H148C148,43,148,30,148,30z M167.4,26c2-1.9-0.9-3-7.5-3s-6.9,0.1-6.9,2.4
		s0.2,2.4,6.8,1.9C163.5,27,166.9,26.4,167.4,26L167.4,26z"/>
	<path class="st1" d="M185,30V17h2.5h2.5v13v13h-2.5H185V30z"/>
	<path class="st1" d="M199,40.8c0-1.4,2.7-5.3,7.1-10l7.1-7.8h-6.6H200v-3v-3h10h10v2.8c0,2-1.9,4.6-7,10l-6.9,7.2h7.4h7.5v3v3h-11
		C199.3,43,199,42.9,199,40.8z"/>
	<path class="st1" d="M230,30V17h2.5h2.5v10v10h7h7v3v3h-9.5H230V30z"/>
	<path class="st1" d="M259.6,39.9c-0.3-1.7-0.6-4.1-0.6-5.3s-2.2-5.4-5-9.3c-2.7-3.9-5-7.4-5-7.7c0-0.3,1.2-0.6,2.8-0.6
		c2.1,0.1,3.5,1.2,6.2,5c3.9,5.4,4.5,5.4,8.2-1.1c1.8-3.3,2.7-3.9,5.6-3.9h3.3l-5.5,7.9c-5,7.1-5.6,8.4-5.6,13
		c0,4.3-0.3,5.1-1.9,5.1C260.8,43,260.1,42,259.6,39.9z"/>
</g>
<g>
	<path class="st2" d="M18,46c-3-3-2.5-5.5,1.5-7.9c1.9-1.1,4-3.2,4.5-4.5c1.8-4.9,9.9-4.6,12.4,0.3c0.9,1.6,3.1,3.8,5.1,4.9
		c4.1,2.5,4.2,3,1.4,6.6c-2,2.5-2.4,2.6-12.5,2.6C21.3,48,19.7,47.7,18,46z"/>
	<path class="st2" d="M14.6,34.4c-1.7-4.4,0.6-8.2,3.1-4.9c2,2.8,1.7,6.5-0.6,6.5C16.1,36,14.9,35.3,14.6,34.4z"/>
	<path class="st2" d="M41.4,34.5c-0.7-1.7,2.1-6.5,3.7-6.5c1.6,0,2.2,3,1.1,5.6C44.9,36.3,42.2,36.8,41.4,34.5z"/>
	<path class="st2" d="M20,27.9c-1.7-3-0.9-6.4,1.5-6.4c2.6,0,4.4,4.7,2.5,6.9C22.3,30.5,21.3,30.4,20,27.9z"/>
	<path class="st2" d="M36.4,28.6c-0.3-0.8-0.4-2.7-0.2-4.3c0.4-4,4.2-4,4.6,0C41.3,28.5,37.7,32,36.4,28.6z"/>
	<path class="st2" d="M27.4,24.6c-0.9-3.8,0.4-6.8,2.9-6.4c1.8,0.2,2.2,1,2.2,4.3c0,3.4-0.4,4-2.2,4.3
		C28.6,27.1,27.9,26.5,27.4,24.6z"/>
</g>
<g>
	<path class="st3" d="M87.4,30.5c0-17.1,0.2-24.2,0.3-15.8c0.2,8.3,0.2,22.3,0,31C87.6,54.4,87.4,47.6,87.4,30.5z"/>
	<path class="st3" d="M174.2,40c0-1.9,0.2-2.7,0.5-1.7c0.2,0.9,0.2,2.5,0,3.5C174.4,42.7,174.2,41.9,174.2,40z"/>
	<path class="st3" d="M137.3,33.5c0-3.3,0.2-4.5,0.4-2.7s0.2,4.5,0,6S137.3,36.8,137.3,33.5z"/>
	<path class="st3" d="M259,35.3c-0.3-2.3-0.2-3.9,0.3-3.4c0.5,0.5,0.7,2.4,0.5,4.2C259.5,39.4,259.4,39.4,259,35.3z"/>
	<path class="st3" d="M204,32.7c0-0.2,1.5-1.6,3.3-3.3l3.2-2.9l-2.9,3.3C204.8,32.8,204,33.5,204,32.7z"/>
	<path class="st3" d="M214,27.7c0-0.2,1.5-1.6,3.3-3.3l3.2-2.9l-2.9,3.3C214.8,27.8,214,28.5,214,27.7z"/>
</g>
</svg>
